<?xml version="1.0" encoding="UTF-8"?>
<svg id="_레이어_1" data-name=" 레이어 1" xmlns="http://www.w3.org/2000/svg" version="1.1" viewBox="0 0 556.7 147.9">
  <defs>
    <style>
      .cls-1 {
        fill: #2c2d2d;
      }

      .cls-1, .cls-2 {
        stroke-width: 0px;
      }

      .cls-2 {
        fill: #cfba9c;
      }
    </style>
  </defs>
  <g>
    <path class="cls-2" d="M34.5,68.6v10.7h24.3v53.8c-26.8-6.3-46.9-30.4-46.9-59.1S31.9,21.1,58.8,14.8v43.2h10.7V2.6c-3.6.2-7.2.6-10.7,1.3C26,10.4,1.2,39.3,1.2,73.9s24.8,63.6,57.6,70c3.5.7,7,1.1,10.7,1.3v-76.7h-35Z"/>
    <path class="cls-2" d="M110.8,68.6v10.7h-24.3v53.8c26.8-6.3,46.9-30.4,46.9-59.1s-20.1-52.9-46.9-59.1v43.2h-10.7V2.6c3.6.2,7.2.6,10.7,1.3,32.8,6.5,57.6,35.4,57.6,70s-24.8,63.6-57.6,70c-3.5.7-7,1.1-10.7,1.3v-76.7h35Z"/>
  </g>
  <g>
    <g>
      <path class="cls-1" d="M193.6,54.3v-13.6h5.1v13.6h30.7v4.2h-59.4v-4.2h23.6ZM220.3,26.8v6.6c0,1.3,0,2.6-.1,4,0,1.4-.2,2.8-.4,4.3-.2,1.4-.4,2.8-.6,4.2-.2,1.4-.4,2.6-.7,3.7l-4.9-.6c.6-2.6,1-5.2,1.3-8,.3-2.7.5-5.3.5-7.7v-2.3h-37.5v-4.4h42.5ZM199.7,64.7c2.6,0,5.2.2,7.6.7,2.4.5,4.6,1.2,6.4,2.2,1.8,1,3.3,2.2,4.4,3.6,1.1,1.4,1.7,3.1,1.7,4.9v2.5c0,1.8-.6,3.5-1.7,4.9-1.1,1.4-2.6,2.7-4.4,3.6-1.8,1-4,1.7-6.4,2.2-2.4.5-5,.7-7.6.7s-5.2-.2-7.6-.7c-2.4-.5-4.6-1.2-6.4-2.2-1.8-1-3.3-2.2-4.4-3.6-1.1-1.4-1.7-3.1-1.7-4.9v-2.5c0-1.9.6-3.5,1.7-5,1.1-1.4,2.6-2.6,4.4-3.6,1.8-1,4-1.7,6.4-2.2,2.4-.5,5-.7,7.6-.7ZM199.7,86.1c1.9,0,3.7-.2,5.6-.5,1.8-.4,3.5-.8,4.9-1.5,1.4-.6,2.6-1.4,3.5-2.4.9-.9,1.3-2,1.3-3.2v-2c0-1.2-.4-2.2-1.3-3.2-.9-.9-2-1.7-3.5-2.4-1.4-.6-3.1-1.1-4.9-1.5-1.8-.4-3.7-.5-5.6-.5s-3.8.2-5.6.5c-1.8.4-3.4.8-4.9,1.5-1.4.6-2.6,1.4-3.5,2.4-.9.9-1.3,2-1.3,3.2v2c0,1.2.4,2.2,1.3,3.2.9.9,2,1.7,3.5,2.4,1.4.6,3.1,1.1,4.9,1.5,1.8.4,3.7.5,5.6.5Z"/>
      <path class="cls-1" d="M236.1,59.5c3.8-1.6,7-3.1,9.6-4.4,2.7-1.3,4.9-2.5,6.7-3.6,1.8-1.1,3.3-2.2,4.3-3.2,1.1-1,1.9-2.1,2.4-3.1.5-1.1.9-2.2,1.1-3.5.2-1.2.2-2.6.2-4.2v-4.9h-22.2v-4.4h27.1v9.6c0,1.9-.1,3.7-.4,5.2-.2,1.5-.7,3-1.3,4.3-.7,1.3-1.6,2.6-2.9,3.8-1.2,1.2-2.9,2.5-4.9,3.7-2,1.3-4.5,2.6-7.4,4-2.9,1.4-6.4,3-10.4,4.7l-2-4.1ZM251.3,83.4h35.6v4.4h-40.6v-21.1h5v16.7ZM284.9,42.9h9.9v4.4h-9.9v23h-4.9V24h4.9v18.9Z"/>
      <path class="cls-1" d="M318.3,45.5c0,.6-.6,1.4-1.7,2.5-1,1.1-2.3,2.3-3.9,3.9-1.2,1.2-2.8,2.6-4.7,4.2-1.9,1.6-3.9,3.2-5.8,4.8l-3.1-3.6c1.9-1.4,3.9-3,6-4.7,2-1.7,3.9-3.4,5.5-5,1.1-1.1,2-2.1,2.7-3,.6-.8,1.1-1.7,1.5-2.5.4-.8.6-1.7.7-2.7,0-1,.1-2.1.1-3.4v-9h5.1v8.9c0,1.3,0,2.4.1,3.4,0,.9.3,1.8.7,2.6.4.8.9,1.6,1.6,2.4.7.8,1.6,1.8,2.8,2.8,1.7,1.5,3.5,3,5.3,4.4,1.8,1.4,3.5,2.7,5,3.9l-3,3.5c-1.9-1.4-3.6-2.7-5.1-4-1.5-1.2-2.9-2.4-4.1-3.4-3.3-2.8-5.2-4.8-5.5-5.8h0ZM332.8,63.6c2.6,0,5.1.3,7.5.8,2.4.5,4.5,1.3,6.3,2.4,1.8,1,3.2,2.3,4.2,3.8,1,1.5,1.6,3.1,1.6,5v2.8c0,1.8-.5,3.5-1.6,5-1,1.5-2.5,2.7-4.2,3.8-1.8,1-3.9,1.8-6.3,2.4-2.4.6-4.9.8-7.5.8s-5.1-.3-7.5-.8c-2.4-.6-4.5-1.4-6.3-2.4-1.8-1-3.2-2.3-4.2-3.8-1-1.5-1.6-3.1-1.6-5v-2.8c0-1.9.5-3.6,1.6-5.1,1-1.5,2.4-2.7,4.2-3.8,1.8-1,3.9-1.8,6.3-2.3,2.4-.5,4.9-.8,7.5-.8ZM332.8,86.1c1.9,0,3.7-.2,5.5-.5,1.8-.4,3.3-.9,4.7-1.6,1.4-.7,2.5-1.5,3.3-2.5.8-1,1.2-2.1,1.2-3.4v-2.4c0-1.3-.4-2.4-1.2-3.4-.8-1-1.9-1.8-3.3-2.5-1.4-.7-3-1.2-4.7-1.6-1.8-.4-3.6-.5-5.5-.5s-3.7.2-5.5.5c-1.8.4-3.3.9-4.7,1.6-1.4.7-2.5,1.5-3.3,2.5-.8,1-1.2,2.1-1.2,3.4v2.4c0,1.3.4,2.4,1.2,3.4.8,1,1.9,1.8,3.3,2.5,1.4.7,3,1.2,4.7,1.6,1.8.4,3.6.5,5.5.5ZM347.1,38.6v-14.6h4.9v38.1h-4.9v-19.2h-14.6v-4.4h14.6Z"/>
      <path class="cls-1" d="M384.4,31.4h16.6v4.3h-37.5v-4.3h15.9v-8.2h4.9v8.2ZM382,63.1c-2.2,0-4.2-.3-6-.8s-3.4-1.3-4.7-2.3c-1.3-1-2.3-2.1-3-3.4-.7-1.3-1.1-2.7-1.1-4.1v-2.5c0-1.5.4-2.8,1.1-4.1.7-1.3,1.7-2.4,3-3.4,1.3-1,2.8-1.8,4.7-2.3,1.8-.6,3.8-.8,6-.8s4.2.3,6,.8c1.8.6,3.4,1.3,4.7,2.3,1.3,1,2.3,2.1,3,3.4.7,1.3,1.1,2.7,1.1,4.1v2.5c0,1.5-.4,2.8-1.1,4.1-.7,1.3-1.7,2.4-3,3.4-1.3,1-2.9,1.8-4.7,2.3-1.8.6-3.8.8-6,.8ZM382,43.2c-1.5,0-2.9.2-4.1.5-1.2.4-2.3.8-3.1,1.5-.9.6-1.6,1.4-2.1,2.2-.5.8-.7,1.7-.7,2.6v2.1c0,.9.2,1.8.7,2.6.5.8,1.2,1.5,2.1,2.2.9.6,1.9,1.1,3.1,1.5,1.2.4,2.6.5,4.1.5s2.8-.2,4-.5c1.2-.4,2.3-.8,3.2-1.5.9-.6,1.6-1.4,2.1-2.2.5-.8.7-1.7.7-2.6v-2.1c0-.9-.2-1.8-.7-2.6-.5-.8-1.2-1.6-2.1-2.2-.9-.6-2-1.1-3.2-1.5-1.2-.4-2.6-.5-4-.5ZM377.8,77.2c0-1.6.5-3.1,1.5-4.4,1-1.3,2.3-2.5,4.1-3.4,1.7-.9,3.8-1.6,6.2-2.2,2.4-.5,5-.8,7.8-.8s5.4.3,7.8.8c2.4.5,4.5,1.2,6.2,2.2,1.7.9,3.1,2.1,4.1,3.4,1,1.3,1.5,2.8,1.5,4.4v2.4c0,1.6-.5,3.1-1.5,4.5-1,1.3-2.3,2.4-4.1,3.4-1.7.9-3.8,1.6-6.2,2.2-2.4.5-5,.8-7.8.8s-5.4-.3-7.8-.8c-2.4-.5-4.5-1.2-6.2-2.2s-3.1-2-4.1-3.4c-1-1.3-1.5-2.8-1.5-4.5v-2.4ZM382.6,79.3c0,1.1.4,2,1.2,2.9.8.8,1.9,1.5,3.3,2.2s2.9,1.1,4.7,1.4c1.8.3,3.7.5,5.6.5s3.8-.2,5.6-.5c1.8-.3,3.4-.8,4.7-1.4,1.4-.6,2.4-1.3,3.3-2.2.8-.8,1.2-1.8,1.2-2.9v-1.8c0-1-.4-2-1.2-2.8-.8-.8-1.9-1.6-3.3-2.2-1.4-.6-2.9-1.1-4.7-1.4-1.8-.3-3.7-.5-5.6-.5s-3.8.2-5.6.5c-1.8.3-3.4.8-4.7,1.4-1.4.6-2.5,1.3-3.3,2.2-.8.8-1.2,1.8-1.2,2.8v1.8ZM411.7,40.3v-16.3h4.9v40.6h-4.9v-7.8h-11v-4.3h11v-8h-11v-4.3h11Z"/>
      <path class="cls-1" d="M472.1,73.1c-2.9.3-5.8.5-8.7.7-2.9.2-5.9.4-9.3.5-3.3.1-7,.2-11.1.3-4.1,0-8.8,0-14.2,0v-4.4h9.6c2.9,0,5.7,0,8.3-.1v-12c-2-.2-3.9-.8-5.7-1.6-1.7-.8-3.3-1.8-4.6-3-1.3-1.2-2.3-2.6-3-4.1-.7-1.5-1.1-3.1-1.1-4.8v-3.4c0-1.8.4-3.6,1.3-5.2.9-1.6,2.1-3.1,3.6-4.3,1.5-1.2,3.3-2.2,5.3-2.9,2-.7,4.2-1.1,6.6-1.1s4.5.4,6.5,1.1c2,.7,3.8,1.7,5.4,2.9,1.5,1.2,2.7,2.7,3.6,4.3.9,1.6,1.3,3.4,1.3,5.2v3.4c0,1.7-.4,3.3-1.1,4.8-.7,1.5-1.7,2.9-3,4.1-1.3,1.2-2.8,2.2-4.5,3-1.7.8-3.6,1.3-5.7,1.6v11.9c3.9-.1,7.4-.3,10.6-.5,3.2-.2,6.3-.5,9.4-.8l.4,4.3ZM449.2,32.3c-1.6,0-3.1.2-4.5.7-1.5.5-2.7,1.2-3.9,2-1.1.9-2,1.9-2.7,3-.7,1.1-1,2.3-1,3.6v2.8c0,1.3.3,2.5,1,3.6.7,1.1,1.5,2.1,2.7,3,1.1.9,2.4,1.6,3.9,2,1.5.5,3,.7,4.5.7s3.1-.2,4.5-.7c1.5-.5,2.7-1.2,3.9-2,1.1-.9,2-1.9,2.7-3,.7-1.1,1-2.3,1-3.6v-2.8c0-1.3-.3-2.5-1-3.6-.7-1.1-1.5-2.1-2.7-3-1.1-.9-2.4-1.6-3.9-2-1.5-.5-3-.7-4.5-.7ZM481.7,88.6h-5V24h5v64.6Z"/>
      <path class="cls-1" d="M533.6,72c-2.9.3-5.7.5-8.4.7-2.7.2-5.6.4-8.7.5-3.1.1-6.7.2-10.6.3-3.9,0-8.6,0-14,0v-4.4h7.2c2.2,0,4.4,0,6.4,0v-20.6h5v20.5c2.3,0,4.4-.1,6.4-.2,2,0,3.9-.2,5.8-.3,1.8,0,3.6-.2,5.3-.4,1.7-.2,3.5-.3,5.2-.5l.4,4.3ZM527.3,30.2v7.8c0,1.7,0,3.5-.1,5.5,0,2-.2,3.9-.3,5.9-.1,2-.3,3.8-.5,5.5-.2,1.7-.5,3.1-.7,4.3l-5-.6c.3-1.4.6-3,.8-4.6.2-1.7.4-3.4.5-5.1.1-1.7.2-3.4.3-5.1,0-1.7,0-3.3,0-4.8v-4.4h-27.2v-4.5h32.2ZM543.1,48.6h10.2v4.5h-10.2v35.6h-5V24h5v24.6Z"/>
    </g>
    <g>
      <path class="cls-1" d="M185.5,105.7c1.5,0,2.8.2,3.9.5,1.1.4,2.1.9,3,1.6l-1.1,1.6c-1-.7-1.9-1.2-2.8-1.4-.9-.3-1.9-.4-3-.4s-1.9.2-2.7.5c-.8.4-1.4.9-1.9,1.5-.5.7-.9,1.4-1.2,2.4-.3.9-.4,1.9-.4,3v2.7c0,5.2,2.2,7.8,6.6,7.8s.9,0,1.3,0c.5,0,.9-.1,1.4-.2s.9-.2,1.2-.3c.4-.1.7-.3,1-.5v-6.7h-5v-1.8h7v9.7c-.9.7-2,1.1-3.2,1.4-1.2.3-2.5.4-3.9.4-2.9,0-5.1-.9-6.5-2.6-1.4-1.7-2.1-4.1-2.1-7.2v-2.6c0-3,.7-5.4,2.1-7,1.4-1.7,3.4-2.5,6.1-2.5Z"/>
      <path class="cls-1" d="M204.5,111.1c2.1,0,3.8.6,5,1.9,1.2,1.3,1.8,3,1.8,5.3v2c0,2.3-.6,4.1-1.8,5.3-1.2,1.3-2.8,1.9-5,1.9s-3.8-.6-5-1.9c-1.2-1.3-1.8-3-1.8-5.3v-2c0-2.3.6-4.1,1.8-5.3,1.2-1.2,2.8-1.9,5-1.9ZM204.5,125.7c1.5,0,2.6-.5,3.5-1.4.8-.9,1.3-2.3,1.3-4.2v-1.7c0-1.9-.4-3.3-1.3-4.2-.8-.9-2-1.4-3.5-1.4s-2.6.5-3.5,1.4c-.8.9-1.3,2.3-1.3,4.2v1.7c0,1.9.4,3.3,1.3,4.2.8.9,2,1.4,3.5,1.4Z"/>
      <path class="cls-1" d="M223.5,111.1c1.8,0,3.2.5,4.2,1.5,1,1,1.5,2.3,1.5,4v10.7h-2v-10.2c0-.6,0-1.1-.2-1.6-.1-.5-.3-.9-.6-1.3-.3-.4-.7-.7-1.2-.9-.5-.2-1.2-.3-2-.3s-1.3.1-1.8.4c-.6.2-1,.6-1.4,1-.4.4-.7.8-.9,1.3-.2.5-.3.9-.3,1.4v10.3h-2v-15.9h2v2.2c.2-.3.4-.6.7-.9s.6-.6,1.1-.8c.4-.2.9-.4,1.4-.6.5-.1,1.1-.2,1.7-.2Z"/>
      <path class="cls-1" d="M245.5,124.9h0c-.5.8-1.1,1.4-2,1.8-.9.4-1.8.6-2.7.6s-1.8-.2-2.5-.5-1.4-.7-2-1.3c-.6-.6-1-1.3-1.3-2.1-.3-.8-.5-1.8-.5-2.9v-2.5c0-1.1.2-2,.5-2.9.3-.8.7-1.6,1.3-2.1.6-.6,1.2-1,2-1.3.8-.3,1.6-.5,2.5-.5s2.2.2,3,.7c.8.4,1.4,1,1.8,1.6v-1.9h2v15.6c0,2.3-.6,4-1.8,5.1s-2.7,1.7-4.7,1.7-2.1-.1-3-.4c-.9-.3-1.6-.7-2.3-1.2l.9-1.6c.4.3.7.5,1.1.6.3.2.7.3,1,.4.3.1.7.2,1.1.2.4,0,.8,0,1.2,0,1.5,0,2.6-.4,3.3-1.2.8-.8,1.1-2,1.1-3.7v-2.2ZM236.5,120.1c0,1.7.4,3,1.2,3.9s1.9,1.4,3.2,1.4,1.3,0,1.8-.2c.6-.2,1-.4,1.5-.8s.7-.8,1-1.3c.2-.5.4-1.1.4-1.8v-4.5c0-.5-.1-.9-.3-1.4-.2-.5-.5-.9-1-1.3s-.9-.7-1.5-.9c-.6-.2-1.2-.4-1.9-.4-1.4,0-2.4.5-3.2,1.4-.8.9-1.2,2.2-1.2,3.9v1.9Z"/>
      <path class="cls-1" d="M270.4,105.7c1.5,0,2.8.2,3.9.5,1.1.4,2.1.9,3,1.6l-1.1,1.6c-1-.7-1.9-1.2-2.8-1.4-.9-.3-1.9-.4-3-.4s-1.9.2-2.7.5c-.8.4-1.4.9-1.9,1.5-.5.7-.9,1.4-1.2,2.4-.3.9-.4,1.9-.4,3v2.7c0,5.2,2.2,7.8,6.6,7.8s.9,0,1.3,0c.5,0,.9-.1,1.4-.2.4,0,.9-.2,1.3-.3.4-.1.7-.3,1-.5v-6.7h-5v-1.8h7v9.7c-.9.7-2,1.1-3.2,1.4-1.2.3-2.5.4-3.9.4-2.9,0-5.1-.9-6.5-2.6-1.4-1.7-2.1-4.1-2.1-7.2v-2.6c0-3,.7-5.4,2.1-7,1.4-1.7,3.4-2.5,6.1-2.5Z"/>
      <path class="cls-1" d="M287.6,127.5c-1.5,0-2.7-.4-3.7-1.2-.9-.8-1.4-1.9-1.4-3.3v-.6c0-1.3.5-2.3,1.4-3.1.9-.8,2.3-1.2,4.2-1.2h4.5v-1.5c0-1.2-.3-2-1-2.7-.6-.6-1.6-.9-2.8-.9s-1.7.2-2.5.5c-.8.3-1.5.7-2.2,1.2l-1-1.5c.7-.5,1.6-1,2.5-1.3.9-.4,2-.6,3.2-.6,1.8,0,3.2.4,4.2,1.3,1,.9,1.5,2.1,1.5,3.7v11.1h-1.9v-1.9h0c-.2.3-.4.5-.7.8-.3.3-.7.5-1.1.7-.9.4-2,.7-3.2.7ZM292.6,119.6h-4.4c-1.3,0-2.2.3-2.8.8-.6.5-.9,1.2-.9,2v.5c0,.5,0,.9.3,1.3.2.4.5.7.8.9.3.2.7.4,1.1.5.4.1.8.2,1.2.2.6,0,1.2,0,1.7-.2.5-.2,1-.4,1.5-.7.4-.3.8-.6,1.1-1,.3-.4.4-.9.4-1.5v-2.7Z"/>
      <path class="cls-1" d="M307.3,111.1c1.8,0,3.2.5,4.2,1.5,1,1,1.5,2.3,1.5,4v10.7h-2v-10.2c0-.6,0-1.1-.2-1.6-.1-.5-.3-.9-.6-1.3-.3-.4-.7-.7-1.2-.9-.5-.2-1.2-.3-2-.3s-1.3.1-1.8.4c-.6.2-1,.6-1.4,1-.4.4-.7.8-.9,1.3-.2.5-.3.9-.3,1.4v10.3h-2v-15.9h2v2.2c.2-.3.4-.6.7-.9.3-.3.6-.6,1.1-.8.4-.2.9-.4,1.4-.6.5-.1,1.1-.2,1.7-.2Z"/>
      <path class="cls-1" d="M328,106.1h7.2c1.1,0,2.1.2,3,.5.9.3,1.6.7,2.1,1.3.6.5,1,1.2,1.3,1.9.3.7.4,1.5.4,2.4v.6c0,.9-.2,1.7-.5,2.4s-.7,1.4-1.3,2c-.6.6-1.3,1-2.1,1.3-.8.3-1.8.5-2.9.5h-5.1v8.4h-2.1v-21.2ZM330.1,107.9v9.1h4.6c1.8,0,3.1-.4,4-1.2.8-.8,1.2-1.8,1.2-3.2v-.5c0-1.3-.4-2.3-1.2-3.1-.8-.8-2-1.2-3.7-1.2h-4.9Z"/>
      <path class="cls-1" d="M347,105h2v22.2h-2v-22.2Z"/>
      <path class="cls-1" d="M359.5,127.5c-1.5,0-2.7-.4-3.7-1.2-.9-.8-1.4-1.9-1.4-3.3v-.6c0-1.3.5-2.3,1.4-3.1.9-.8,2.3-1.2,4.2-1.2h4.5v-1.5c0-1.2-.3-2-1-2.7-.6-.6-1.6-.9-2.8-.9s-1.7.2-2.5.5-1.5.7-2.2,1.2l-1-1.5c.7-.5,1.6-1,2.5-1.3.9-.4,2-.6,3.2-.6,1.8,0,3.2.4,4.2,1.3,1,.9,1.5,2.1,1.5,3.7v11.1h-1.9v-1.9h0c-.2.3-.4.5-.7.8-.3.3-.7.5-1.1.7-.9.4-2,.7-3.2.7ZM364.4,119.6h-4.4c-1.3,0-2.2.3-2.8.8-.6.5-.9,1.2-.9,2v.5c0,.5,0,.9.3,1.3.2.4.5.7.8.9.3.2.7.4,1.1.5.4.1.8.2,1.2.2.6,0,1.2,0,1.7-.2.5-.2,1-.4,1.5-.7.4-.3.8-.6,1.1-1,.3-.4.4-.9.4-1.5v-2.7Z"/>
      <path class="cls-1" d="M377.4,125.7c1.3,0,2.3-.3,2.9-.8.7-.5,1-1.1,1-1.8v-.3c0-.8-.3-1.4-1-1.8-.7-.4-1.8-.8-3.3-1.1-.8-.2-1.5-.3-2.2-.6-.6-.2-1.2-.5-1.6-.8-.5-.3-.8-.7-1.1-1.2s-.4-1-.4-1.7v-.4c0-.6.1-1.1.4-1.6.2-.5.6-1,1.1-1.3.5-.4,1.1-.7,1.8-.9.7-.2,1.6-.3,2.5-.3s2.3.2,3.1.5c.9.3,1.7.7,2.3,1.2l-.9,1.5c-.7-.5-1.3-.8-2-1-.7-.2-1.5-.4-2.6-.4s-2.1.2-2.7.7-.9,1.1-.9,1.7v.3c0,.7.3,1.2,1,1.6.7.4,1.7.7,2.9.9,2,.4,3.4.9,4.3,1.6.9.7,1.3,1.7,1.3,2.9v.4c0,.6-.1,1.2-.4,1.7-.3.5-.7,1-1.2,1.4-.5.4-1.1.7-1.8.9-.7.2-1.5.3-2.3.3-1.3,0-2.4-.2-3.5-.5-1-.3-1.9-.8-2.6-1.3l1-1.6c.7.5,1.5.9,2.3,1.2.8.3,1.7.5,2.7.5Z"/>
      <path class="cls-1" d="M389.6,113.1h-2.7v-1.7h2.7v-4.1h2v4.1h4.4v1.7h-4.4v9.7c0,1.1.2,1.8.5,2.3.3.4.9.6,1.7.6s1.5,0,2.2-.3l.3,1.6c-.3.1-.7.2-1.3.3-.5,0-1,.1-1.4.1-.7,0-1.3,0-1.8-.2-.5-.2-.9-.4-1.3-.8-.3-.4-.6-.8-.8-1.4-.2-.6-.3-1.3-.3-2.2v-9.7Z"/>
      <path class="cls-1" d="M401.3,106.1h2.2v2.2h-2.2v-2.2ZM401.3,111.4h2v15.9h-2v-15.9Z"/>
      <path class="cls-1" d="M415.4,111.1c1.1,0,2.1.1,2.9.4.8.3,1.6.7,2.3,1.2l-.9,1.6c-.7-.5-1.5-.9-2.1-1-.7-.2-1.4-.3-2.1-.3-1.4,0-2.5.5-3.3,1.4-.8.9-1.2,2.2-1.2,3.9v2c0,1.7.4,3.1,1.2,4,.8.9,1.9,1.4,3.4,1.4s2-.2,2.7-.5c.7-.3,1.4-.7,1.9-1.1l.9,1.6c-.3.2-.6.4-1,.6s-.8.4-1.2.6c-.5.2-1,.3-1.5.4-.6.1-1.2.2-1.9.2-2.1,0-3.7-.6-4.9-1.9-1.2-1.3-1.7-3.1-1.7-5.4v-2c0-1.2.2-2.2.5-3.1.3-.9.8-1.6,1.3-2.2.6-.6,1.3-1.1,2.1-1.4.8-.3,1.7-.5,2.7-.5Z"/>
      <path class="cls-1" d="M441,125.7c.8,0,1.6,0,2.2-.3.7-.2,1.2-.5,1.7-.8.5-.3.8-.7,1-1.2.2-.4.4-.9.4-1.4v-.6c0-.5,0-.9-.2-1.3-.2-.4-.4-.8-.9-1.1-.4-.3-1-.6-1.7-.9-.7-.3-1.6-.5-2.8-.8-1.2-.3-2.3-.6-3.1-1-.8-.4-1.5-.8-2-1.2-.5-.5-.9-1-1.1-1.5-.2-.6-.3-1.2-.3-1.8v-.7c0-.8.2-1.5.5-2.2.3-.7.8-1.2,1.4-1.7.6-.5,1.4-.8,2.2-1.1.9-.3,1.8-.4,2.8-.4,1.4,0,2.7.2,3.7.5,1,.3,1.9.8,2.6,1.3l-1,1.7c-.7-.5-1.5-.9-2.4-1.2-.9-.3-1.9-.4-3-.4s-1.3,0-1.9.2c-.6.2-1.1.4-1.5.7-.4.3-.8.7-1.1,1.1-.3.4-.4.9-.4,1.5v.6c0,.5,0,.9.2,1.2.2.4.4.7.8,1,.4.3.9.6,1.5.8.6.3,1.5.5,2.4.7,1.4.3,2.5.7,3.4,1,.9.4,1.6.8,2.1,1.3.5.5.9,1,1.1,1.6.2.6.3,1.3.3,2v.7c0,.8-.2,1.5-.5,2.1-.3.7-.8,1.3-1.4,1.8-.6.5-1.4.9-2.3,1.2-.9.3-1.9.4-3.1.4s-2.7-.2-4-.6c-1.2-.4-2.3-1-3.3-1.7l1.1-1.7c1.1.8,2.1,1.3,3.1,1.7,1,.3,2,.5,3,.5Z"/>
      <path class="cls-1" d="M459.2,127.5c-1.8,0-3.2-.5-4.1-1.5-.9-1-1.4-2.3-1.4-4v-10.6h2v10.1c0,.6,0,1.1.2,1.6.1.5.3.9.6,1.3.3.4.7.7,1.2.9.5.2,1.1.3,1.9.3s1.3-.1,1.8-.4c.6-.2,1-.5,1.4-.9.4-.4.7-.8.9-1.3s.3-.9.3-1.4v-10.3h2v15.9h-2v-2.2c-.4.6-1,1.2-1.8,1.7-.8.5-1.8.8-3.1.8Z"/>
      <path class="cls-1" d="M480.4,113.5c-.6-.2-1.2-.3-1.9-.3s-1.2.1-1.8.4c-.5.3-1,.6-1.4,1.1-.4.5-.7,1-.9,1.6-.2.6-.3,1.3-.3,2.1v9h-2v-15.9h2v2.8c.2-.4.4-.7.7-1.1.3-.4.6-.7,1-1,.4-.3.8-.5,1.3-.7.5-.2,1-.3,1.6-.3s.9,0,1.2,0c.4,0,.7.1,1,.2l-.6,2Z"/>
      <path class="cls-1" d="M495.4,124.9h0c-.5.8-1.1,1.4-2,1.8-.9.4-1.8.6-2.7.6s-1.8-.2-2.5-.5c-.8-.3-1.4-.7-2-1.3-.6-.6-1-1.3-1.3-2.1-.3-.8-.5-1.8-.5-2.9v-2.5c0-1.1.2-2,.5-2.9.3-.8.8-1.6,1.3-2.1.6-.6,1.2-1,2-1.3.8-.3,1.6-.5,2.5-.5s2.2.2,3,.7c.8.4,1.4,1,1.8,1.6v-1.9h2v15.6c0,2.3-.6,4-1.8,5.1s-2.7,1.7-4.7,1.7-2.1-.1-3-.4c-.9-.3-1.6-.7-2.3-1.2l.9-1.6c.4.3.7.5,1.1.6.3.2.7.3,1,.4.3.1.7.2,1.1.2.4,0,.8,0,1.2,0,1.5,0,2.6-.4,3.3-1.2.8-.8,1.1-2,1.1-3.7v-2.2ZM486.4,120.1c0,1.7.4,3,1.2,3.9.8.9,1.9,1.4,3.2,1.4s1.3,0,1.8-.2c.6-.2,1-.4,1.5-.8.4-.3.7-.8,1-1.3.2-.5.4-1.1.4-1.8v-4.5c0-.5-.1-.9-.3-1.4-.2-.5-.5-.9-1-1.3-.4-.4-.9-.7-1.5-.9-.6-.2-1.2-.4-1.9-.4-1.4,0-2.4.5-3.2,1.4-.8.9-1.2,2.2-1.2,3.9v1.9Z"/>
      <path class="cls-1" d="M515.3,125.7c-.6.5-1.4.9-2.4,1.2-.9.4-2.1.6-3.4.6-2.1,0-3.8-.6-4.9-1.9-1.2-1.3-1.8-3.1-1.8-5.4v-2c0-2.3.6-4,1.7-5.3,1.1-1.3,2.7-1.9,4.7-1.9s3.7.6,4.8,1.9c1.1,1.3,1.6,3,1.6,5.3v1.6h-10.8v.3c0,1.8.4,3.1,1.3,4.1.8.9,2,1.4,3.5,1.4s2-.2,2.8-.5c.8-.3,1.5-.7,2.1-1.1l.9,1.5ZM513.7,118.3v-.3c0-1.7-.4-2.9-1.1-3.8-.8-.9-1.8-1.3-3.2-1.3s-2.5.5-3.3,1.4c-.8.9-1.2,2.2-1.2,3.8v.3h8.8Z"/>
      <path class="cls-1" d="M529.3,113.5c-.5-.2-1.2-.3-1.9-.3s-1.2.1-1.8.4c-.5.3-1,.6-1.4,1.1-.4.5-.7,1-.9,1.6-.2.6-.3,1.3-.3,2.1v9h-2v-15.9h2v2.8c.2-.4.4-.7.7-1.1.3-.4.6-.7,1-1,.4-.3.8-.5,1.3-.7.5-.2,1-.3,1.6-.3s.9,0,1.2,0c.4,0,.7.1,1,.2l-.6,2Z"/>
      <path class="cls-1" d="M534.3,111.4l4.9,13.6,4.8-13.6h2.1l-8.2,22.4-1.7-.6,2-5.7-5.9-16.1h2.1Z"/>
    </g>
  </g>
</svg>