<svg width="542" height="641" viewBox="0 0 542 641" fill="none" xmlns="http://www.w3.org/2000/svg">
<path d="M461.933 79.6732C356.053 -26.2067 184.163 -26.6068 78.7732 78.7732C-26.6068 184.153 -26.2067 356.053 79.6732 461.933L96.6432 478.903V271.213C96.6432 175.303 174.703 97.2732 270.643 97.2732C366.583 97.2732 444.643 175.303 444.643 271.213C444.643 367.123 366.583 445.153 270.643 445.153C228.633 445.153 190.053 430.193 159.963 405.333V542.223L236.763 619.023C256.053 638.313 278.083 650.483 297.283 631.283V540.443C357.793 534.843 416.693 508.963 462.833 462.823C568.213 357.443 567.813 185.543 461.933 79.6633V79.6732Z" fill="#3292FF"/>
<path d="M381.333 271.213C381.333 210.203 331.683 160.563 270.653 160.563C209.623 160.563 159.973 210.203 159.973 271.213C159.973 332.223 209.623 381.863 270.653 381.863C331.683 381.863 381.333 332.223 381.333 271.213Z" fill="#3292FF"/>
</svg>
